PathFileType	4	(X/Y/Z)	 s05c0202.trc
DataRate	CameraRate	NumFrames	NumMarkers	Units	OrigDataRate	OrigDataStartFrame	OrigNumFrames
200	200	5	49	mm	200	1501	2000
Frame#	Time	racr			lacr			c7			jug			rlel			rdr			llel			ldr			s2			lic			ric			lasi			rasi			rpsi			lpsi			rgt			lgt			rth1			rth2			rth3			rth4			rlfc			rsh1			rsh2			rsh3			rsh4			rlmal			rmmal			rcal			rtoe			rmt5			lth1			lth2			lth4			lth3			llfc			lmfc			lsh1			lsh2			lsh3			lsh4			llmal			lmmal			lcal			ltoe			lmt5			SBIKE			LBIKE			RBIKE			
		X1	Y1	Z1	X2	Y2	Z2	X3	Y3	Z3	X4	Y4	Z4	X5	Y5	Z5	X6	Y6	Z6	X7	Y7	Z7	X8	Y8	Z8	X9	Y9	Z9	X10	Y10	Z10	X11	Y11	Z11	X12	Y12	Z12	X13	Y13	Z13	X14	Y14	Z14	X15	Y15	Z15	X16	Y16	Z16	X17	Y17	Z17	X18	Y18	Z18	X19	Y19	Z19	X20	Y20	Z20	X21	Y21	Z21	X22	Y22	Z22	X23	Y23	Z23	X24	Y24	Z24	X25	Y25	Z25	X26	Y26	Z26	X27	Y27	Z27	X28	Y28	Z28	X29	Y29	Z29	X30	Y30	Z30	X31	Y31	Z31	X32	Y32	Z32	X33	Y33	Z33	X34	Y34	Z34	X35	Y35	Z35	X36	Y36	Z36	X37	Y37	Z37	X38	Y38	Z38	X39	Y39	Z39	X40	Y40	Z40	X41	Y41	Z41	X42	Y42	Z42	X43	Y43	Z43	X44	Y44	Z44	X45	Y45	Z45	X46	Y46	Z46	X47	Y47	Z47	X48	Y48	Z48	X49	Y49	Z49	
1501	7.5050	467.666772	1234.857533	-105.921244	501.560547	1227.008702	-354.655898	469.763732	1319.450095	-235.638431	395.352779	1173.767705	-237.499673	455.142792	1031.732952	81.833322	651.873438	958.446105	-39.472753	526.982637	1082.894473	-610.753465	638.629840	944.594019	-420.730030	-111.908516	1186.210542	-282.223064	40.336594	1183.308351	-424.464265	20.069532	1217.014953	-140.119100	79.504063	1128.059750	-379.995394	69.390479	1158.704756	-163.755153	-79.034648	1239.181916	-248.274026	-69.779519	1232.201088	-333.015858	-3.506909	1107.829151	-102.903930	-30.509711	1077.547382	-440.370617	105.991866	1062.639607	-96.287277	194.623873	1052.844383	-100.593028	264.434948	999.427256	-102.317316	206.241650	1084.039798	-117.634581	396.059116	927.474544	-134.285100	323.899696	845.902878	-108.190882	302.936564	759.605919	-111.944942	245.834620	696.434429	-110.337342	330.990972	745.758790	-134.278689	187.959779	569.146912	-110.237451	206.061665	594.479461	-190.256602	114.421642	541.947619	-154.738744	404.210606	485.151973	-144.936016	300.354174	474.891578	-80.681414	60.586108	961.755077	-450.893107	131.216236	913.799925	-442.860135	158.135945	935.403760	-428.706038	168.647552	831.176359	-437.930110	243.168262	705.562703	-409.299064	223.857067	691.319991	-302.007649	174.157365	599.852938	-442.333802	159.335601	514.280294	-434.691803	102.666690	445.625733	-438.578657	186.748317	502.615383	-410.081908	62.792695	335.694975	-437.000337	92.339925	347.839586	-361.032463	-7.531366	328.472601	-396.677152	226.469516	148.896348	-391.782452	125.311140	186.447684	-458.691269	-215.070240	913.390159	-268.190128	-43.643350	85.163285	-474.915306	-51.932077	80.117435	-77.406464	
1502	7.5100	467.044132	1235.919439	-105.405227	501.459115	1226.833449	-353.765877	469.051248	1319.987647	-235.286463	395.146809	1174.042169	-236.407674	454.876528	1031.422838	80.615227	651.846105	958.543346	-39.938659	527.406718	1083.583003	-610.423160	638.313945	944.435263	-420.648119	-112.348052	1185.397425	-283.229620	40.213523	1182.199867	-424.623187	18.300282	1216.711552	-140.345052	79.485339	1127.229925	-380.080472	68.800192	1158.482389	-163.595730	-79.645886	1238.436572	-249.264842	-70.040147	1231.332982	-334.034750	-4.915025	1106.134159	-103.469612	-29.808841	1076.830171	-441.278788	104.775503	1058.911193	-95.979909	193.181066	1047.659701	-99.794545	262.203865	992.720225	-101.865496	205.465449	1078.684056	-116.689293	392.696900	918.544787	-133.627848	320.709313	835.787011	-107.032902	301.651361	748.938746	-111.198330	245.982384	684.520054	-109.990227	330.445068	735.615802	-133.214437	191.667935	556.392278	-110.965670	209.336270	582.859422	-190.732357	119.080665	527.029415	-155.744894	410.719047	482.717327	-143.813317	307.208254	467.515733	-80.152787	64.017318	963.132782	-450.629084	135.813690	916.929526	-441.598980	161.767427	938.945624	-426.745068	174.762151	835.057791	-436.491236	250.344884	710.149666	-407.680290	230.530036	695.402328	-300.299096	179.529879	605.717552	-441.121701	162.546168	520.523467	-433.676872	104.164951	453.318599	-438.086631	189.472694	508.231872	-408.934678	61.248394	344.283494	-436.904209	91.316414	355.140456	-360.830152	-9.263818	339.634330	-396.540081	217.631968	151.108201	-391.880344	117.977849	192.656419	-458.549182	-215.036533	913.389378	-268.236569	-43.626976	85.131789	-474.908270	-51.978783	80.285374	-77.246783	
1503	7.5150	466.500675	1237.089427	-105.025168	501.369532	1226.898160	-353.126869	468.471978	1320.655492	-235.119560	394.958753	1174.511157	-235.607292	454.772842	1031.238432	79.370748	651.927171	958.722511	-40.468356	527.749333	1084.250893	-610.086766	638.085344	944.314943	-420.522842	-112.892415	1184.334999	-284.520586	40.269932	1180.926340	-424.818166	17.360364	1216.238803	-140.606892	79.573464	1126.529717	-380.093738	68.466326	1158.153297	-163.048425	-80.179418	1237.325915	-250.038284	-70.341869	1230.282864	-335.165798	-6.539153	1103.884099	-104.374135	-28.768538	1075.918075	-442.293025	103.255170	1054.768568	-95.602322	191.513874	1041.973205	-98.920535	259.595759	985.788733	-101.057584	204.533328	1072.903958	-115.341168	388.895106	909.492382	-132.315698	317.376525	825.150754	-105.840852	300.408150	737.881024	-110.437669	246.273798	672.056393	-109.728954	329.670733	725.246182	-132.272312	195.569179	544.236255	-111.404695	212.560119	570.906684	-191.263114	124.104287	512.023490	-156.204175	417.580094	478.540599	-143.585297	314.290092	459.994924	-80.042461	67.717180	964.656084	-450.375926	140.340504	919.738569	-440.177600	165.592679	942.389823	-424.928686	180.981811	839.072253	-435.034256	257.497224	714.597694	-405.792162	237.214743	699.624741	-298.410878	185.058266	611.658160	-439.706636	165.915330	526.881302	-432.552774	105.956392	461.225153	-437.553875	192.407534	513.856403	-407.630798	60.131769	353.047778	-436.903842	90.102303	362.907218	-360.462269	-10.567894	351.008455	-396.542154	209.066428	153.884820	-392.000450	111.101454	199.399119	-458.440484	-215.013511	913.346236	-268.288903	-43.598361	85.075618	-474.904301	-51.921253	80.091266	-77.407494	
1504	7.5200	465.969239	1238.321280	-104.719407	501.277287	1227.091936	-352.623688	467.904549	1321.296148	-235.186134	394.839272	1174.928648	-235.074952	454.831366	1031.170332	78.277924	651.989312	958.992422	-40.838329	528.156836	1084.782790	-609.803211	637.921462	944.223488	-420.393790	-113.278959	1183.157086	-285.441601	40.501527	1179.872998	-425.267594	16.307879	1215.440931	-140.801544	79.663040	1125.484335	-379.892466	67.849575	1157.509324	-162.813224	-80.711425	1235.968112	-251.087689	-70.599247	1228.842533	-335.440425	-7.924009	1101.385391	-105.084709	-27.521891	1074.982004	-443.330869	101.654653	1050.165745	-95.251818	189.695582	1035.854281	-97.857121	256.767272	978.549847	-100.142972	203.452443	1066.772962	-113.729229	384.334587	900.587798	-130.489566	313.915502	814.184881	-104.743672	299.363015	726.504372	-109.706864	246.942848	659.222373	-109.544315	329.109187	714.601988	-131.351952	199.645469	532.407472	-111.484520	216.025984	559.010296	-191.556531	128.987421	497.387966	-156.519737	423.795898	473.940238	-143.587693	321.049739	451.856691	-80.201833	71.575618	966.206412	-450.195553	144.957606	922.724574	-439.048441	169.570756	945.919671	-423.590565	187.131366	842.909019	-433.480837	264.634008	719.214102	-403.669945	243.441176	704.052090	-296.420512	190.770361	617.615502	-438.171867	169.524443	533.282077	-431.341271	108.134406	469.139204	-437.014506	195.419148	519.488937	-406.200065	59.498483	361.900317	-436.935709	89.634613	370.619571	-360.282915	-11.431455	362.698889	-396.983131	200.752138	157.231582	-392.093478	104.569708	206.434455	-458.367088	-214.989188	913.289265	-268.419727	-43.593073	85.015612	-474.923887	-51.970797	80.257548	-77.271966	
1505	7.5250	465.571957	1239.539936	-104.628830	501.200621	1227.546643	-352.355410	467.325574	1322.030029	-235.218979	394.832663	1175.381104	-234.713219	454.960673	1031.194429	77.255208	652.132867	959.212912	-41.275390	528.351052	1085.303688	-609.454035	637.797970	944.182620	-420.274555	-113.914435	1181.772113	-286.982678	40.661253	1178.571298	-425.369980	15.575088	1214.398034	-141.243446	79.899065	1124.745404	-379.790516	67.141139	1156.704019	-162.876996	-81.309726	1234.641582	-252.485254	-70.910261	1227.500044	-336.575653	-9.919967	1098.158028	-106.490811	-26.024275	1073.972649	-444.398812	99.839644	1045.304367	-94.921660	187.710495	1029.494762	-96.761837	253.767240	970.992072	-99.211017	202.152846	1060.417771	-111.950843	380.186319	891.210820	-128.861674	310.648820	803.118996	-103.550940	298.664127	714.967180	-109.070677	248.330732	646.169526	-109.437981	328.852190	704.402435	-130.619237	204.851150	518.736624	-113.178130	219.779976	547.204644	-191.762467	133.938090	483.246256	-156.869178	429.680940	468.194014	-143.235604	327.280592	443.250916	-80.072759	75.510579	967.725288	-449.974761	149.379123	925.627522	-438.088457	173.677746	949.308336	-422.514088	193.182221	846.589746	-431.987642	271.722384	723.737653	-401.516804	249.512112	708.373393	-294.286780	196.612842	623.547517	-436.249649	173.345615	539.837901	-430.066445	110.482604	477.058081	-436.420157	198.680089	525.328632	-404.827501	59.281545	370.915415	-437.039506	89.269653	378.593275	-360.007697	-11.761184	374.199000	-397.159210	192.880534	161.236751	-392.264854	98.594807	213.880347	-458.384389	-214.978892	913.231946	-268.647685	-43.579581	84.921707	-474.975000	-51.917144	80.059889	-77.478033	
